<svg width="21" height="21" viewBox="0 0 21 21" fill="none" xmlns="http://www.w3.org/2000/svg">
<path d="M18.8 20.0001L15.6 16.9001C13.9 18.2001 11.8 19.0001 9.6 19.0001C4.4 19.1001 0.1 14.8001 0 9.6001C0 4.3001 4.3 9.83849e-05 9.6 0.100098C14.8 9.83849e-05 19.1 4.3001 19.2 9.5001C19.2 11.9001 18.3 14.1001 16.7 15.8001L19.8 18.8001C20.1 19.1001 20.1 19.5001 19.8 19.8001C19.5 20.1001 19.1 20.2001 18.8 20.0001ZM1.4 9.5001C1.5 13.9001 5.1 17.5001 9.5 17.5001C13.9 17.5001 17.6 14.0001 17.6 9.5001C17.5 5.1001 13.9 1.5001 9.5 1.5001C5.1 1.5001 1.5 5.1001 1.4 9.5001Z" fill="#999999"/>
</svg>
